<?xml version="1.0" encoding="utf-8"?>
<!-- Generator: Adobe Illustrator 24.2.3, SVG Export Plug-In . SVG Version: 6.00 Build 0)  -->
<svg version="1.1" id="Layer_1" xmlns="http://www.w3.org/2000/svg" xmlns:xlink="http://www.w3.org/1999/xlink" x="0px" y="0px"
	 viewBox="0 0 411 173.1" style="enable-background:new 0 0 411 173.1;" xml:space="preserve">
<style type="text/css">
	.st0{fill:#FFFFFF;}
	.st1{fill:#093860;}
</style>
<rect class="st0" width="411" height="173.1"/>
<g id="XMLID_88_">
	<g id="XMLID_19_">
		<polygon id="XMLID_23_" class="st1" points="5,168 5,173.1 411,173.1 411,0 0,0 0,173.1 5,173.1 5,168 10.1,168 10.1,10.1 
			400.9,10.1 400.9,163 5,163 5,168 10.1,168 		"/>
	</g>
	<g id="XMLID_46_">
		<path id="XMLID_239_" class="st1" d="M187.3,34h42.4v56.8c0,4.9-0.9,9.2-2.5,12.8c-1.6,3.6-3.9,6.5-6.8,8.5
			c-2.9,2-6.2,3.6-9.7,4.5c-3.6,1-7.5,1.4-11.7,1.4c-7.1,0-14.1-1.3-21.3-3.9v-20c4.8,2.6,10.1,3.9,15.7,3.9
			c9.7,0,14.4-3.5,14.4-10.4V53.4L187.3,34z"/>
		<path id="XMLID_48_" class="st1" d="M260,116.4h-21.8V34h20.6l32.3,47.3c-0.3-3.5-0.4-8.1-0.4-13.7V34h21.8v82.5h-20.6l-32.3-47.3
			c0.3,3.5,0.4,7.9,0.4,13.6V116.4z"/>
		<polygon id="XMLID_47_" class="st1" points="321.4,34 343.2,34 343.2,97.1 380.9,97.1 380.9,116.4 321.4,116.4 		"/>
	</g>
	<g id="XMLID_21_">
		<path id="XMLID_25_" class="st1" d="M183.6,131.8h1.3v11.7h7.2v1.2h-8.7v-12.8H183.6z"/>
		<path id="XMLID_29_" class="st1" d="M199.7,131.8h1.3v13h-1.3V131.8z"/>
		<path id="XMLID_35_" class="st1" d="M211.7,133v5h6.6v1.2h-6.6v5.5h-1.3v-13h8.8v1.2h-7.5V133z"/>
		<path id="XMLID_37_" class="st1" d="M229.9,133h-4.5v-1.2h10.4v1.2h-4.5v11.7H230V133H229.9z"/>
		<path id="XMLID_41_" class="st1" d="M251.9,143.1l0.6-1c0.9,0.9,2.6,1.6,4.3,1.6c2.5,0,3.5-1,3.5-2.3c0-3.6-7.9-1.3-7.9-6.2
			c0-1.9,1.4-3.6,4.8-3.6c1.4,0,3,0.4,4,1.2l-0.4,1.2c-1.2-0.7-2.5-1-3.6-1c-2.3,0-3.5,1-3.5,2.3c0,3.6,7.9,1.4,7.9,6.1
			c0,1.9-1.4,3.5-4.8,3.5C254.7,144.8,252.8,144.1,251.9,143.1z"/>
		<path id="XMLID_44_" class="st1" d="M278.8,143.5v1.2h-9.1v-13h8.8v1.2H271v4.6h6.6v1.2H271v4.8h7.8V143.5z"/>
		<path id="XMLID_50_" class="st1" d="M295.9,144.6l-2.9-4.2c-0.3,0-0.7,0-1,0h-3.5v4h-1.3v-13h4.9c3.3,0,5.3,1.7,5.3,4.5
			c0,2-1,3.5-2.9,4l3.2,4.5h-1.9V144.6z M295.9,136.1c0-2-1.3-3.3-3.9-3.3h-3.5v6.5h3.5C294.5,139.5,295.9,138.2,295.9,136.1z"/>
		<path id="XMLID_53_" class="st1" d="M316.4,131.8l-5.8,13h-1.3l-5.8-13h1.4l4.9,11.2l5-11.2H316.4z"/>
		<path id="XMLID_55_" class="st1" d="M323.5,131.8h1.3v13h-1.3V131.8z"/>
		<path id="XMLID_57_" class="st1" d="M333,138.2c0-3.7,2.9-6.6,6.8-6.6c1.9,0,3.6,0.6,4.8,1.9l-0.9,0.9c-1-1-2.3-1.6-3.7-1.6
			c-3.2,0-5.5,2.3-5.5,5.3c0,3,2.3,5.3,5.5,5.3c1.4,0,2.7-0.4,3.7-1.6l0.9,0.9c-1.2,1.3-2.9,1.9-4.8,1.9
			C335.9,144.8,333,142,333,138.2z"/>
		<path id="XMLID_59_" class="st1" d="M361.7,143.5v1.2h-9.1v-13h8.8v1.2h-7.5v4.6h6.6v1.2h-6.6v4.8h7.8V143.5z"/>
		<path id="XMLID_61_" class="st1" d="M368.9,143.1l0.6-1c0.9,0.9,2.6,1.6,4.3,1.6c2.5,0,3.5-1,3.5-2.3c0-3.6-7.9-1.3-7.9-6.2
			c0-1.9,1.4-3.6,4.8-3.6c1.4,0,3,0.4,4,1.2l-0.4,1.2c-1.2-0.7-2.5-1-3.6-1c-2.3,0-3.5,1-3.5,2.3c0,3.6,7.9,1.4,7.9,6.1
			c0,1.9-1.4,3.5-4.8,3.5C371.8,144.8,369.9,144.1,368.9,143.1z"/>
	</g>
	<path id="XMLID_16_" class="st1" d="M23.4,21.2v129.5h129.5V21.2H23.4z M138.9,136.4h-18.2h-2.5h-13.8V50.3h-5.5H83.6v86.1l0,0
		H67.3h-30v-30.1h16.3v15h13.6V35.3l0,0h31.6h21.8v86.1h18.2v15H138.9z"/>
</g>
</svg>
