<?xml version="1.0" encoding="UTF-8" standalone="no"?>
<svg
   xmlns:dc="http://purl.org/dc/elements/1.1/"
   xmlns:cc="http://creativecommons.org/ns#"
   xmlns:rdf="http://www.w3.org/1999/02/22-rdf-syntax-ns#"
   xmlns:svg="http://www.w3.org/2000/svg"
   xmlns="http://www.w3.org/2000/svg"
   viewBox="0 0 553.33331 277.33334"
   height="277.33334"
   width="553.33331"
   xml:space="preserve"
   id="svg2"
   version="1.1"><metadata
     id="metadata8"><rdf:RDF><cc:Work
         rdf:about=""><dc:format>image/svg+xml</dc:format><dc:type
           rdf:resource="http://purl.org/dc/dcmitype/StillImage" /></cc:Work></rdf:RDF></metadata><defs
     id="defs6" /><g
     transform="matrix(1.3333333,0,0,-1.3333333,0,277.33333)"
     id="g10"><g
       transform="scale(0.1)"
       id="g12"><path
         id="path14"
         style="fill:#4c99ab;fill-opacity:1;fill-rule:evenodd;stroke:none"
         d="m 2765.98,1448.01 h -749.5 L 1945.98,1325 h 749.49 l 70.51,123.01 m -327.5,-298.52 H 1844.49 L 1915,1272.5 h 593.98 l -70.5,-123.01" /><path
         id="path16"
         style="fill:#829ca8;fill-opacity:1;fill-rule:evenodd;stroke:none"
         d="m 1787.5,1149.49 274.49,475 -71.01,122.5 -344.5,-597.5 h 141.02 m -346.02,0 448.01,773.01 70.98,-122.5 -375,-650.51 h -143.99" /><path
         id="path18"
         style="fill:#26617d;fill-opacity:1;fill-rule:evenodd;stroke:none"
         d="m 1855.98,2079.49 336.01,-581.99 141.49,0.51 -335.98,581.99 -141.52,-0.51 m 380.5,-61.01 300,-520.47 -141.48,-0.51 -300,520.51 141.48,0.47" /><path
         id="path20"
         style="fill:#27617e;fill-opacity:1;fill-rule:nonzero;stroke:none"
         d="m 351.371,671.051 h 21.09 l 15,-47.5 c 4.769,-5 10.238,-9.141 16.41,-12.34 6.25,-3.242 12.848,-5.859 19.84,-7.813 6.949,-1.878 14.141,-3.238 21.559,-4.058 7.39,-0.86 14.57,-1.25 21.57,-1.25 8.82,0 17.57,1.172 26.25,3.59 8.75,2.379 16.558,6.172 23.43,11.41 6.96,5.191 12.582,11.75 16.878,19.68 4.262,8.011 6.403,17.582 6.403,28.75 0,10.199 -2.461,19.421 -7.34,27.66 -4.922,8.32 -11.481,16.09 -19.691,23.281 -8.122,7.187 -17.5,13.949 -28.122,20.309 -10.546,6.449 -21.41,12.82 -32.66,19.07 -12.109,6.64 -24.019,13.629 -35.777,20.93 -11.68,7.39 -22.152,15.39 -31.41,24.07 -9.289,8.75 -16.789,18.43 -22.5,29.058 -5.742,10.704 -8.59,22.731 -8.59,36.09 0,11.25 1.758,21.293 5.309,30.16 3.519,8.942 8.171,16.801 13.91,23.59 5.82,6.762 12.582,12.582 20.308,17.5 7.813,5 15.981,9.063 24.532,12.192 8.519,3.121 17.191,5.351 25.941,6.718 8.75,1.442 17.109,2.192 25.16,2.192 11.559,0 22.219,-0.59 32.027,-1.719 9.883,-1.062 18.75,-2.5 26.563,-4.383 7.809,-1.789 14.527,-3.75 20.16,-5.937 5.699,-2.18 10.309,-4.289 13.75,-6.25 v -66.403 h -20.32 l -18.59,45.942 c -2.93,2.57 -6.41,4.84 -10.473,6.711 -4.058,1.961 -8.59,3.597 -13.59,4.847 -5,1.25 -10.386,2.114 -16.097,2.653 -5.621,0.629 -11.321,0.937 -17.031,0.937 -6.559,0 -13.821,-1.008 -21.719,-2.968 -7.93,-1.989 -15.313,-5.391 -22.18,-10.149 -6.801,-4.691 -12.582,-10.902 -17.351,-18.601 -4.68,-7.731 -7.032,-17.418 -7.032,-29.059 0,-9.063 2.192,-17.461 6.563,-25.16 4.461,-7.61 10.398,-14.68 17.82,-21.25 7.379,-6.563 15.859,-12.813 25.469,-18.75 9.68,-5.852 19.762,-11.563 30.308,-17.18 12.582,-6.883 25.231,-14.031 37.973,-21.41 12.809,-7.301 24.258,-15.473 34.367,-24.531 10.203,-8.981 18.481,-18.91 24.852,-29.84 6.32,-10.86 9.531,-23.289 9.531,-37.352 0,-17.929 -3.359,-33.238 -10,-45.937 -6.68,-12.61 -15.711,-22.961 -27.031,-31.09 -11.371,-8.121 -24.5,-14.063 -39.379,-17.813 -14.922,-3.75 -30.582,-5.628 -47.031,-5.628 -11.989,0 -23.75,0.628 -35.309,1.878 -11.57,1.25 -22.269,2.891 -32.031,4.84 -9.809,2.071 -18.399,4.301 -25.789,6.723 -7.301,2.379 -12.61,4.57 -15.93,6.559 z m 281.641,47.66 c 0.308,21.328 3.976,40.391 11.09,57.187 7.07,16.872 16.449,31.133 28.128,42.813 11.641,11.641 25.071,20.551 40.309,26.719 15.191,6.25 31.09,9.449 47.66,9.691 20.313,0.188 37.961,-3.281 52.961,-10.473 15,-7.187 27.391,-17.109 37.192,-29.687 9.769,-12.5 17.07,-27.191 21.878,-44.063 4.758,-16.878 7.071,-35 6.872,-54.378 -0.122,-21.168 -3.512,-40.54 -10.153,-58.122 -6.57,-17.5 -15.469,-32.578 -26.719,-45.16 -11.25,-12.5 -24.46,-22.258 -39.531,-29.218 -15.121,-6.872 -31.25,-10.309 -48.437,-10.309 -21.992,0 -40.742,3.988 -56.25,11.879 -15.434,8 -28.051,18.75 -37.813,32.18 -9.687,13.441 -16.719,28.832 -21.097,46.25 -4.372,17.5 -6.403,35.71 -6.09,54.691 z M 756.449,600.59 c 13.512,-0.32 24.922,1.949 34.211,6.871 9.379,5 16.961,12.269 22.82,21.879 5.821,9.68 10.04,21.64 12.649,35.93 2.582,14.261 3.91,30.671 3.91,49.218 0,16.024 -1.41,31.024 -4.219,45 -2.73,13.953 -7.109,26.102 -13.121,36.41 -5.937,10.391 -13.519,18.59 -22.66,24.532 -9.18,6.019 -20.078,9.218 -32.66,9.531 -13.551,0.199 -25.078,-2.152 -34.527,-7.031 -9.493,-4.918 -17.301,-12.032 -23.442,-21.41 -6.051,-9.372 -10.461,-20.899 -13.281,-34.532 -2.731,-13.547 -4.059,-28.898 -4.059,-46.09 0,-15.546 1.481,-30.468 4.532,-44.847 3.007,-14.289 7.539,-26.992 13.597,-38.121 6.012,-11.051 13.672,-19.961 22.961,-26.719 9.379,-6.801 20.469,-10.313 33.289,-10.621 z" /><path
         id="path22"
         style="fill:#27617e;fill-opacity:1;fill-rule:nonzero;stroke:none"
         d="m 929.34,599.801 48.121,5.32 v 209.84 h -52.66 v 18.129 l 52.66,14.058 v 20 c 0,11.762 1.449,22.852 4.379,33.282 3,10.39 7.031,19.922 12.031,28.59 5,8.64 10.779,16.332 17.339,23.128 6.64,6.762 13.63,12.422 20.94,17.032 7.26,4.691 14.69,8.199 22.19,10.621 7.5,2.5 14.57,3.75 21.25,3.75 10.82,0 18.79,-0.461 23.9,-1.403 5.08,-0.937 8.52,-1.839 10.31,-2.66 v -40.617 c -2.18,1.25 -7.18,2.731 -15,4.527 -7.73,1.872 -17.3,2.813 -28.75,2.813 -6.56,0 -12.46,-0.59 -17.65,-1.723 -5.24,-1.047 -9.69,-3.59 -13.44,-7.648 -3.67,-4.07 -6.52,-10.078 -8.59,-17.969 -1.99,-7.93 -2.97,-18.672 -2.97,-32.191 v -39.532 h 72.34 V 814.961 H 1023.4 V 604.648 l 55,-4.847 V 579.488 H 929.34 Z" /><path
         id="path24"
         style="fill:#27617e;fill-opacity:1;fill-rule:nonzero;stroke:none"
         d="m 1166.21,642.148 c 0,29.372 0.04,58.512 0.16,87.5 0.08,28.942 0.15,58.122 0.15,87.5 h -36.56 v 17.813 c 6.95,1.758 12.81,3.16 17.5,4.219 4.69,1.019 8.59,2.23 11.72,3.59 3.12,1.332 5.7,3.05 7.81,5.16 2.07,2.07 3.99,5.082 5.78,9.058 1.02,2.703 2.39,6.641 4.07,11.883 1.64,5.309 3.28,10.699 4.84,16.25 1.56,5.5 2.85,10.66 3.91,15.469 1.13,4.879 1.87,8.359 2.18,10.461 h 23.75 v -63.903 h 80.32 v -30 h -80.32 V 696.52 c 0,-18.551 0.2,-33.59 0.63,-45.149 0.51,-11.57 1.72,-20.633 3.59,-27.191 1.96,-6.481 4.77,-10.899 8.44,-13.282 3.63,-2.308 8.75,-3.437 15.31,-3.437 3.95,0 8.36,0.348 13.28,1.09 4.89,0.828 9.57,1.801 14.07,2.969 4.57,1.14 8.75,2.39 12.5,3.75 3.82,1.332 6.75,2.66 8.75,3.91 l 7.34,-21.09 c -3.67,-3.988 -8.52,-7.469 -14.53,-10.469 -6.06,-3.051 -12.66,-5.59 -19.85,-7.66 -7.1,-2.07 -14.17,-3.633 -21.25,-4.691 -7.1,-1.008 -13.35,-1.559 -18.75,-1.559 -17.42,0 -30.89,5.309 -40.46,15.937 -9.61,10.704 -14.38,28.204 -14.38,52.5 z" /><path
         id="path26"
         style="fill:#27617e;fill-opacity:1;fill-rule:nonzero;stroke:none"
         d="m 1334.65,817.621 -24.38,4.219 v 25.308 h 104.38 V 821.84 l -33.13,-5 45,-145.942 12.97,-51.878 10.78,51.57 45.47,176.558 h 41.1 l 46.25,-176.25 13.59,-51.878 13.12,50 37.35,148.281 -29.69,4.539 v 25.308 h 96.72 v -25 l -30,-5.628 -71.25,-242.969 h -42.03 l -51.72,182.347 -6.25,35.622 -9.06,-35.622 -48.13,-182.347 h -39.69 z" /><path
         id="path28"
         style="fill:#27617e;fill-opacity:1;fill-rule:nonzero;stroke:none"
         d="m 1742.77,656.52 c 1.14,11.14 4.73,20.859 10.78,29.218 6.14,8.442 13.64,15.672 22.5,21.723 8.95,6.019 18.91,11.019 29.85,15 10.94,4.059 21.87,7.269 32.81,9.687 11.02,2.383 21.64,4.063 31.88,5 10.19,0.942 19.06,1.403 26.56,1.403 v 20.937 c 0,12.5 -1.68,22.703 -5,30.633 -3.36,7.891 -7.97,14.098 -13.91,18.59 -5.94,4.449 -12.93,7.5 -20.94,9.059 -7.92,1.57 -16.48,2.351 -25.62,2.351 -4.69,0 -9.92,-0.43 -15.63,-1.25 -5.74,-0.859 -11.67,-2.109 -17.81,-3.75 -6.17,-1.57 -12.34,-3.519 -18.59,-5.781 -6.17,-2.192 -12.03,-4.649 -17.66,-7.352 l -8.9,21.563 c 5.93,4.769 13.16,8.949 21.71,12.5 8.52,3.64 17.27,6.648 26.25,9.07 9.07,2.379 17.86,4.098 26.41,5.149 8.52,1.14 15.82,1.718 21.88,1.718 12.57,0 24.57,-1.328 35.93,-3.898 11.45,-2.621 21.45,-7.27 30,-13.91 8.64,-6.68 15.47,-15.629 20.47,-26.879 5.08,-11.172 7.66,-25.422 7.66,-42.813 l -0.47,-164.687 h 30.62 V 584.02 c -5.62,-3.04 -12.57,-5.469 -20.78,-7.34 -8.24,-1.95 -16.48,-2.969 -24.68,-2.969 -2.93,0 -6.06,0.238 -9.38,0.629 -3.36,0.43 -6.41,1.48 -9.22,3.121 -2.81,1.559 -5.15,3.988 -7.03,7.34 -1.8,3.32 -2.66,7.969 -2.66,13.91 v 6.559 c -3.67,-4.372 -8.04,-8.508 -13.12,-12.34 -5,-3.871 -10.74,-7.27 -17.19,-10.16 -6.48,-2.809 -13.83,-5 -22.03,-6.559 -8.12,-1.641 -17.26,-2.5 -27.34,-2.5 -12.42,0 -23.71,2.269 -33.91,6.719 -10.12,4.449 -18.55,10.468 -25.31,17.968 -6.8,7.582 -11.84,16.403 -15.16,26.403 -3.24,10 -4.22,20.551 -2.97,31.719 z m 46.57,-0.93 c 0,-9.379 1.25,-17.352 3.75,-23.91 2.57,-6.559 6.29,-11.879 11.09,-15.942 4.88,-4.058 10.82,-7.027 17.81,-8.898 7.07,-1.801 15,-2.66 23.75,-2.66 4.77,0 9.61,0.621 14.53,1.871 5,1.25 9.73,2.82 14.22,4.687 4.57,1.961 8.79,4.141 12.66,6.563 3.94,2.5 7.11,4.929 9.53,7.347 0,15 0.04,29.883 0.16,44.692 0.07,14.762 0.19,29.68 0.31,44.68 -6.68,0 -14.03,-0.391 -22.03,-1.09 -7.93,-0.739 -15.9,-1.989 -23.91,-3.75 -7.93,-1.801 -15.62,-4.141 -23.12,-7.032 -7.5,-2.808 -14.18,-6.41 -20,-10.777 -5.75,-4.383 -10.32,-9.531 -13.75,-15.473 -3.36,-5.937 -5,-12.738 -5,-20.308 z" /><path
         id="path30"
         style="fill:#27617e;fill-opacity:1;fill-rule:nonzero;stroke:none"
         d="m 2015.23,599.801 38.75,5 v 194.847 l -34.06,18.59 v 14.852 l 63.13,18.898 11.25,-4.84 V 810.43 c 3,4.449 7.58,9.14 13.75,14.058 6.13,4.891 13,9.383 20.62,13.442 7.7,4.14 15.71,7.539 24.06,10.16 8.32,2.57 16.14,3.898 23.44,3.898 5.31,0 10.04,-0.109 14.22,-0.308 4.26,-0.231 7.27,-0.7 9.06,-1.41 v -49.059 c -2.61,1.019 -5.27,2.07 -7.97,3.129 -2.73,1.012 -5.74,1.871 -9.06,2.5 -3.24,0.699 -6.95,1.32 -11.09,1.871 -4.06,0.508 -8.83,0.777 -14.22,0.777 -12.93,0 -23.83,-1.679 -32.66,-5 -8.75,-3.238 -16.79,-7.187 -24.06,-11.867 V 605.59 l 68.13,-5.789 v -20.313 h -153.29 z" /><path
         id="path32"
         style="fill:#27617e;fill-opacity:1;fill-rule:nonzero;stroke:none"
         d="m 2233.32,712.461 c 0,20.391 3.2,39.219 9.69,56.41 6.44,17.258 15.47,32.219 27.03,44.84 11.56,12.578 25.47,22.5 41.72,29.687 16.33,7.262 34.29,11.172 53.9,11.723 14.07,0.309 26.72,-1.723 37.97,-6.101 11.33,-4.372 20.98,-10.899 28.91,-19.532 8.01,-8.668 14.3,-19.179 18.91,-31.558 4.57,-12.418 7.18,-26.52 7.81,-42.34 0.31,-10 0.08,-18.711 -0.63,-26.102 -0.74,-7.297 -1.52,-13.828 -2.34,-19.527 H 2279.1 c 0,-1.051 0,-1.992 0,-2.813 0,-0.859 0.04,-1.796 0.16,-2.808 0.62,-19.301 3.9,-35.238 9.84,-47.82 5.94,-12.61 13.32,-22.61 22.19,-30 8.83,-7.418 18.59,-12.61 29.22,-15.622 10.7,-2.929 21.17,-4.378 31.4,-4.378 6.14,0 12.66,0.359 19.54,1.101 6.87,0.699 13.51,1.758 20,3.117 6.44,1.332 12.42,2.891 17.96,4.692 5.51,1.761 9.93,3.59 13.29,5.468 l 8.9,-20.308 c -4.69,-4.18 -10.74,-7.93 -18.12,-11.25 -7.43,-3.36 -15.55,-6.219 -24.38,-8.602 -8.75,-2.258 -17.93,-3.976 -27.5,-5.148 -9.49,-1.25 -18.83,-1.879 -27.97,-1.879 -19.29,0 -36.36,3.277 -51.25,9.84 -14.92,6.648 -27.46,16.019 -37.65,28.129 -10.24,12.07 -18.05,26.601 -23.44,43.59 -5.31,17.07 -7.97,36.14 -7.97,57.191 z m 177.03,25.629 c 0.51,8.121 0.63,16.289 0.31,24.531 -0.23,8.199 -1.21,16.008 -2.96,23.43 -1.68,7.39 -4.34,14.148 -7.97,20.32 -3.56,6.129 -8.4,11.129 -14.53,15 -4.07,2.688 -8.75,4.719 -14.07,6.09 -5.23,1.328 -11.21,2.027 -17.97,2.027 -8.86,0 -17.5,-1.679 -25.93,-5 -8.36,-3.359 -15.86,-8.707 -22.5,-16.09 -6.57,-7.308 -12.11,-16.718 -16.57,-28.277 -4.49,-11.57 -7.34,-25.59 -8.59,-42.031 z" /><path
         id="path34"
         style="fill:#27617e;fill-opacity:1;fill-rule:nonzero;stroke:none"
         d="m 2508.44,599.801 40.47,7.187 v 316.563 l -39.53,4.07 v 23.43 H 2570 c 10.51,0.32 22.97,0.98 37.34,2.039 14.46,1.012 31.33,1.441 50.63,1.25 19.14,-0.121 36.09,-2.149 50.78,-6.102 14.77,-3.859 27.11,-9.449 37.03,-16.718 9.88,-7.18 17.38,-15.93 22.5,-26.25 5.08,-10.309 7.66,-21.829 7.66,-34.532 0,-11.047 -1.41,-21.519 -4.22,-31.398 -2.74,-9.93 -6.99,-18.871 -12.81,-26.879 -5.75,-7.93 -12.97,-14.762 -21.72,-20.473 -8.75,-5.738 -19.14,-9.957 -31.1,-12.648 13.13,-0.238 25.39,-2.5 36.88,-6.879 11.44,-4.371 21.41,-10.551 29.84,-18.441 8.52,-7.93 15.24,-17.461 20.16,-28.59 4.88,-11.051 7.34,-23.36 7.34,-36.879 0,-16.051 -3.2,-30.93 -9.53,-44.68 -6.25,-13.75 -15.78,-25.711 -28.59,-35.781 -12.81,-10 -28.91,-17.82 -48.28,-23.442 -19.38,-5.628 -42.27,-8.437 -68.6,-8.437 -6.87,0 -13.9,0.117 -21.09,0.309 -7.11,0.242 -14.02,0.468 -20.78,0.781 -6.68,0.32 -12.97,0.711 -18.91,1.097 -5.86,0.43 -10.86,0.782 -15,1.09 h -61.09 z m 87.18,190 c 3.95,-0.852 8.44,-1.36 13.44,-1.563 5,-0.226 10.08,-0.308 15.32,-0.308 5.19,0 10.31,0 15.31,0 5,0.082 9.53,0.16 13.59,0.16 12.07,0 22.97,1.558 32.66,4.68 9.76,3.128 18.04,7.742 24.84,13.91 6.76,6.25 11.95,13.941 15.63,23.121 3.75,9.258 5.62,19.929 5.62,32.039 0,11.129 -2.15,20.859 -6.41,29.211 -4.29,8.437 -10.15,15.398 -17.65,20.937 -7.5,5.633 -16.33,9.852 -26.41,12.66 -10.11,2.813 -21.17,4.223 -33.12,4.223 -3.05,0 -6.96,0 -11.72,0 -4.81,0.078 -9.81,0.039 -15,-0.16 -5.12,-0.121 -10,-0.473 -14.69,-1.09 -4.61,-0.551 -8.24,-1.332 -10.94,-2.351 z m 0,-177.961 c 2.08,-1.371 5.47,-2.621 10.16,-3.75 4.69,-1.18 9.88,-2.149 15.63,-2.969 5.7,-0.859 11.64,-1.531 17.81,-2.031 6.13,-0.43 11.76,-0.629 16.87,-0.629 13.13,0 25.39,1.328 36.88,4.059 11.44,2.699 21.44,7.07 30,13.128 8.51,6.012 15.23,13.942 20.15,23.75 5,9.883 7.5,21.911 7.5,36.09 0,27.582 -7.57,47.703 -22.65,60.313 -15,12.699 -37.5,19.07 -67.5,19.07 -5.63,0 -11.37,0.039 -17.19,0.149 -5.86,0.082 -11.56,0.082 -17.19,0 -5.62,-0.11 -11.05,-0.27 -16.25,-0.469 -5.23,-0.11 -9.96,-0.391 -14.22,-0.781 z" /><path
         id="path36"
         style="fill:#27617e;fill-opacity:1;fill-rule:nonzero;stroke:none"
         d="m 2874.14,813.238 -24.69,7.192 v 18.441 l 61.57,13.117 8.28,-4.218 V 682.93 c 0,-13.36 0.7,-24.77 2.18,-34.219 1.45,-9.492 4.07,-17.301 7.82,-23.441 3.82,-6.168 9.1,-10.7 15.78,-13.59 6.76,-2.93 15.39,-4.379 25.94,-4.379 7.18,0 14.21,0.98 21.09,2.969 6.95,1.96 13.44,4.378 19.37,7.191 6.02,2.809 11.29,5.699 15.79,8.75 4.45,3.129 7.69,5.82 9.68,8.129 v 176.711 l -29.84,7.66 v 19.687 l 68.44,13.59 6.72,-4.058 V 599.801 h 28.75 V 581.68 c -2.43,-1.25 -5.4,-2.418 -8.91,-3.59 -3.56,-1.25 -7.34,-2.352 -11.41,-3.289 -4.06,-1.012 -8.24,-1.871 -12.5,-2.5 -4.18,-0.621 -8.2,-0.93 -12.03,-0.93 -7.62,0 -13.59,1.68 -17.97,5 -4.37,3.199 -6.56,8.43 -6.56,15.617 v 19.532 c -13.98,-12.11 -28.55,-21.321 -43.75,-27.649 -15.23,-6.25 -30.08,-9.383 -44.53,-9.383 -18.87,0 -33.56,2.934 -44.06,8.75 -10.55,5.821 -18.4,13.832 -23.6,24.063 -5.23,10.32 -8.43,22.5 -9.68,36.57 -1.18,14.059 -1.8,29.367 -1.88,45.93 z" /><path
         id="path38"
         style="fill:#27617e;fill-opacity:1;fill-rule:nonzero;stroke:none"
         d="m 3211.68,908.398 c -3.87,0 -7.62,0.661 -11.25,2.032 -3.67,1.449 -6.88,3.359 -9.69,5.781 -2.81,2.5 -5.08,5.551 -6.72,9.219 -1.68,3.629 -2.5,7.808 -2.5,12.5 0,4.879 1.02,9.449 3.13,13.75 2.19,4.371 4.92,8.121 8.28,11.25 3.44,3.121 7.23,5.511 11.41,7.191 4.25,1.758 8.51,2.649 12.81,2.649 10.51,0 18.2,-2.93 23.12,-8.75 4.89,-5.739 7.35,-12.649 7.35,-20.782 0,-5.308 -1.06,-10.148 -3.13,-14.527 -2.11,-4.301 -4.84,-7.891 -8.28,-10.781 -3.36,-2.93 -7.15,-5.27 -11.41,-7.032 -4.29,-1.679 -8.67,-2.5 -13.12,-2.5 z m -52.81,-308.597 40.62,5 v 195.937 l -32.97,17.5 v 14.852 l 66.25,18.898 10.78,-4.84 V 604.801 l 38.75,-5 v -20.313 h -123.43 z" /><path
         id="path40"
         style="fill:#27617e;fill-opacity:1;fill-rule:nonzero;stroke:none"
         d="m 3321.45,599.801 40.78,5 v 324.07 l -38.28,8.59 v 20.777 l 74.84,10 9.53,-5.468 V 604.801 l 42.66,-5 v -20.313 h -129.53 z" /><path
         id="path42"
         style="fill:#27617e;fill-opacity:1;fill-rule:nonzero;stroke:none"
         d="m 3591.56,573.711 c -13.36,0 -26.33,2.66 -38.9,7.969 -12.62,5.39 -23.75,13.629 -33.44,24.691 -9.69,11.129 -17.5,25.188 -23.44,42.18 -5.86,16.961 -8.75,37.07 -8.75,60.32 0,21.438 3.59,41.129 10.78,59.059 7.19,17.89 16.96,33.32 29.38,46.25 12.5,12.89 27.11,23.011 43.9,30.308 16.88,7.274 34.93,10.942 54.22,10.942 8.44,0 16.6,-0.59 24.53,-1.719 8.01,-1.172 14.93,-2.66 20.78,-4.531 v 79.691 l -51.09,8.59 v 20.777 l 86.25,10 10.78,-5.468 V 599.801 h 32.19 V 581.84 c -2.73,-1.371 -6.09,-2.66 -10.16,-3.91 -4.06,-1.328 -8.39,-2.5 -12.97,-3.442 -4.49,-0.937 -9.06,-1.636 -13.74,-2.187 -4.69,-0.5 -9.15,-0.781 -13.29,-0.781 -2.93,0 -5.93,0.242 -9.06,0.628 -3.12,0.43 -6.01,1.481 -8.59,3.122 -2.5,1.57 -4.61,4.031 -6.25,7.351 -1.68,3.32 -2.5,7.969 -2.5,13.899 v 5.941 c -2.42,-2.731 -5.9,-5.742 -10.47,-9.063 -4.61,-3.359 -10.31,-6.488 -17.19,-9.378 -6.87,-2.809 -14.76,-5.192 -23.59,-7.18 -8.87,-2.07 -18.67,-3.129 -29.38,-3.129 z M 3610,606.52 c 5.08,0 9.84,0.242 14.22,0.781 4.37,0.629 8.48,1.41 12.34,2.347 7.82,1.872 14.46,4.411 20,7.653 5.63,3.211 10.32,6.648 14.06,10.32 V 810.59 c -1.79,2.07 -3.98,4.211 -6.56,6.398 -2.5,2.274 -5.78,4.383 -9.84,6.25 -4.06,1.961 -8.99,3.524 -14.69,4.692 -5.62,1.25 -12.3,1.871 -20,1.871 -6.05,0 -12.34,-0.781 -18.91,-2.34 -6.48,-1.481 -12.92,-3.981 -19.37,-7.5 -6.37,-3.551 -12.42,-8.121 -18.13,-13.75 -5.74,-5.551 -10.85,-12.34 -15.31,-20.473 -4.49,-8.039 -8.08,-17.418 -10.78,-28.117 -2.73,-10.742 -4.14,-23.09 -4.22,-37.031 -0.31,-19.61 1.64,-36.57 5.94,-50.942 4.26,-14.378 10.04,-26.25 17.34,-35.628 7.27,-9.29 15.63,-16.211 25,-20.782 9.38,-4.488 18.99,-6.718 28.91,-6.718 z" /><path
         id="path44"
         style="fill:#849daa;fill-opacity:1;fill-rule:nonzero;stroke:none"
         d="M 2.73047,130.352 H 14.7695 l 8.5899,-27.192 c 2.6914,-2.808 5.8203,-5.1483 9.3711,-7.0311 3.5195,-1.8672 7.2695,-3.3984 11.25,-4.5273 4.0703,-1.0508 8.1679,-1.8321 12.3476,-2.3399 4.2617,-0.4336 8.3633,-0.6328 12.3438,-0.6328 5.0781,0 10.0781,0.6719 15,2.0313 5,1.4492 9.4492,3.6406 13.4375,6.5703 3.9416,2.8905 7.1096,6.6405 9.5316,11.2495 2.5,4.571 3.75,10.04 3.75,16.399 0,5.82 -1.411,11.101 -4.219,15.781 -2.813,4.77 -6.5626,9.219 -11.2501,13.289 -4.6133,4.141 -9.961,8.039 -16.0938,11.711 -6.0586,3.641 -12.2695,7.231 -18.5976,10.789 -6.8711,3.821 -13.711,7.852 -20.461,12.031 -6.6797,4.141 -12.6601,8.75 -17.9687,13.75 -5.2422,5 -9.5,10.5 -12.82033,16.559 -3.24219,6.133 -4.83984,13.012 -4.83984,20.621 0,6.449 0.98046,12.231 2.96875,17.352 1.94921,5.078 4.60942,9.566 7.96872,13.437 3.3203,3.821 7.1914,7.18 11.5625,10 4.4492,2.813 9.0977,5.071 13.9102,6.871 4.8789,1.758 9.8398,3.051 14.8398,3.91 5.0782,0.821 9.8789,1.25 14.3789,1.25 6.6407,0 12.8086,-0.32 18.4297,-0.941 5.6289,-0.629 10.6719,-1.488 15.1598,-2.5 4.45,-1.059 8.321,-2.187 11.563,-3.437 3.199,-1.25 5.816,-2.461 7.808,-3.59 v -37.973 h -11.558 l -10.781,26.25 c -1.5629,1.441 -3.5512,2.691 -5.9418,3.75 -2.3008,1.133 -4.9179,2.07 -7.8086,2.813 -2.8125,0.699 -5.8593,1.25 -9.0625,1.558 -3.2383,0.391 -6.5273,0.629 -9.8476,0.629 -3.75,0 -7.8907,-0.59 -12.3399,-1.719 -4.4922,-1.172 -8.7109,-3.09 -12.6601,-5.781 -3.8594,-2.738 -7.1407,-6.328 -9.8399,-10.777 -2.7304,-4.383 -4.0625,-9.922 -4.0625,-16.563 0,-5.238 1.25,-10 3.75,-14.379 2.5,-4.371 5.8203,-8.441 10,-12.191 4.2617,-3.668 9.1407,-7.18 14.6914,-10.617 5.5,-3.364 11.2813,-6.641 17.3399,-9.852 7.1914,-3.859 14.4101,-7.93 21.7187,-12.18 7.2619,-4.179 13.7929,-8.871 19.5309,-14.07 5.821,-5.109 10.551,-10.781 14.219,-17.031 3.633,-6.25 5.473,-13.399 5.473,-21.399 0,-10.242 -1.961,-18.992 -5.781,-26.25 -3.75,-7.1909 -8.872,-13.1284 -15.321,-17.8198 -6.48,-4.6094 -13.98,-7.961 -22.4998,-10.1485 -8.5508,-2.0703 -17.5,-3.1328 -26.8711,-3.1328 -6.8789,0 -13.6679,0.3906 -20.3086,1.1016 -6.5703,0.7383 -12.6601,1.6797 -18.289,2.8086 -5.5391,1.1328 -10.4297,2.3828 -14.6797,3.75 -4.17971,1.332 -7.19142,2.582 -9.07033,3.75 z" /><path
         id="path46"
         style="fill:#849daa;fill-opacity:1;fill-rule:nonzero;stroke:none"
         d="m 163.59,157.539 c 0.199,12.262 2.351,23.199 6.41,32.813 4.059,9.57 9.41,17.699 16.09,24.378 6.64,6.641 14.301,11.75 22.969,15.309 8.75,3.512 17.851,5.352 27.351,5.473 11.559,0.078 21.602,-1.961 30.149,-6.102 8.64,-4.058 15.711,-9.68 21.25,-16.871 5.632,-7.109 9.769,-15.469 12.5,-25.16 2.812,-9.68 4.14,-20.078 4.07,-31.09 -0.117,-12.109 -2.109,-23.129 -5.938,-33.129 -3.75,-10 -8.871,-18.59 -15.32,-25.7811 -6.359,-7.1797 -13.859,-12.7695 -22.5,-16.7187 -8.551,-3.9414 -17.769,-5.9297 -27.652,-5.9297 -12.617,0 -23.36,2.3008 -32.188,6.8711 -8.75,4.5703 -15.941,10.6679 -21.562,18.2773 -5.547,7.6991 -9.528,16.4921 -12.028,26.4101 -2.5,10 -3.711,20.391 -3.601,31.25 z m 70.629,-67.4999 c 7.691,-0.2383 14.222,1.0898 19.531,3.9101 5.391,2.8906 9.77,7.0708 13.129,12.4998 3.32,5.5 5.699,12.34 7.18,20.461 1.453,8.211 2.191,17.66 2.191,28.289 0,9.141 -0.781,17.692 -2.34,25.621 -1.57,8.008 -4.07,15 -7.5,20.942 -3.441,5.937 -7.781,10.539 -12.969,13.898 -5.242,3.442 -11.492,5.238 -18.75,5.469 -7.742,0.082 -14.3,-1.25 -19.691,-4.059 -5.43,-2.73 -9.922,-6.8 -13.441,-12.191 -3.438,-5.43 -5.938,-11.988 -7.5,-19.68 -1.559,-7.738 -2.34,-16.527 -2.34,-26.41 0,-8.867 0.82,-17.418 2.5,-25.629 1.761,-8.121 4.371,-15.39 7.812,-21.711 3.52,-6.371 7.969,-11.4881 13.278,-15.3201 5.312,-3.8594 11.601,-5.8984 18.91,-6.0898 z" /><path
         id="path48"
         style="fill:#849daa;fill-opacity:1;fill-rule:nonzero;stroke:none"
         d="m 332.969,89.5703 27.5,3.1289 V 212.539 h -30 v 10.473 l 30,7.968 v 11.399 c 0,6.762 0.82,13.133 2.5,19.07 1.761,5.93 4.062,11.321 6.871,16.25 2.89,5 6.25,9.41 10,13.281 3.75,3.821 7.699,7.071 11.879,9.68 4.14,2.699 8.359,4.731 12.66,6.102 4.25,1.437 8.32,2.187 12.18,2.187 6.14,0 10.671,-0.32 13.601,-0.937 2.891,-0.551 4.879,-1.024 5.93,-1.41 V 283.32 c -1.25,0.7 -4.141,1.602 -8.59,2.66 -4.379,1.008 -9.84,1.559 -16.41,1.559 -3.75,0 -7.141,-0.309 -10.149,-0.937 -2.929,-0.622 -5.472,-2.114 -7.66,-4.372 -2.109,-2.308 -3.711,-5.75 -4.84,-10.32 -1.171,-4.488 -1.722,-10.582 -1.722,-18.281 V 230.98 h 41.25 v -18.441 h -41.25 V 92.3789 l 31.402,-2.8086 V 78.0117 h -85.152 z" /><path
         id="path50"
         style="fill:#849daa;fill-opacity:1;fill-rule:nonzero;stroke:none"
         d="m 468.359,113.789 c 0,16.762 0,33.441 0,50 0.082,16.563 0.161,33.199 0.161,50 h -20.942 v 10.313 c 4.063,0.937 7.383,1.718 10,2.347 2.692,0.621 4.922,1.281 6.723,2.031 1.75,0.7 3.199,1.641 4.371,2.809 1.25,1.25 2.379,3.012 3.437,5.313 0.621,1.558 1.411,3.828 2.34,6.878 0.942,3 1.801,6.09 2.66,9.219 0.942,3.121 1.719,6.012 2.34,8.75 0.629,2.813 1.02,4.84 1.25,6.09 h 13.442 V 230.98 h 45.937 v -17.191 h -45.937 v -68.91 c 0,-10.617 0.16,-19.219 0.468,-25.777 0.313,-6.563 0.981,-11.723 2.032,-15.473 1.129,-3.7501 2.738,-6.3282 4.839,-7.6485 2.071,-1.3711 5,-2.0313 8.75,-2.0313 2.27,0 4.77,0.1914 7.5,0.6211 2.821,0.5078 5.508,1.0899 8.129,1.7188 2.582,0.6211 5,1.289 7.192,2.0312 2.179,0.8203 3.789,1.6016 4.84,2.3397 l 4.379,-12.0311 c -2.192,-2.3008 -5,-4.3281 -8.442,-6.0898 -3.437,-1.6797 -7.187,-3.1289 -11.25,-4.3789 -4.058,-1.1289 -8.129,-1.9493 -12.187,-2.5 -4.063,-0.6211 -7.661,-0.9297 -10.782,-0.9297 -9.918,0 -17.621,3.039 -23.129,9.0586 -5.429,6.1328 -8.121,16.1328 -8.121,29.9999 z" /><path
         id="path52"
         style="fill:#849daa;fill-opacity:1;fill-rule:nonzero;stroke:none"
         d="m 564.609,214.102 -13.91,2.347 v 14.531 h 59.531 v -14.531 l -18.75,-2.82 25.629,-83.43 7.34,-29.687 6.25,29.527 25.942,100.941 h 23.437 l 26.402,-100.781 7.821,-29.687 7.5,28.59 21.398,84.847 -17.027,2.5 V 230.98 H 781.48 V 216.602 L 764.301,213.48 723.672,74.5703 h -24.063 l -29.531,104.2187 -3.598,20.313 -5.152,-20.313 -27.5,-104.2187 h -22.656 z" /><path
         id="path54"
         style="fill:#849daa;fill-opacity:1;fill-rule:nonzero;stroke:none"
         d="m 797.809,122.07 c 0.632,6.328 2.66,11.91 6.101,16.719 3.512,4.762 7.852,8.91 12.969,12.34 5.07,3.441 10.781,6.293 17.031,8.601 6.25,2.258 12.5,4.098 18.75,5.469 6.32,1.321 12.418,2.262 18.281,2.813 5.821,0.617 10.86,0.937 15.149,0.937 v 11.871 c 0,7.192 -1.012,13.008 -2.969,17.5 -1.871,4.571 -4.531,8.129 -7.961,10.629 -3.359,2.571 -7.308,4.289 -11.879,5.153 -4.492,0.937 -9.371,1.41 -14.691,1.41 -2.61,0 -5.578,-0.282 -8.899,-0.782 -3.242,-0.429 -6.64,-1.101 -10.16,-2.031 -3.551,-0.937 -7.109,-2.039 -10.621,-3.289 -3.558,-1.25 -6.961,-2.648 -10.16,-4.211 l -5,12.34 c 3.32,2.691 7.422,5.039 12.34,7.031 4.89,2.071 9.89,3.789 15,5.16 5.199,1.321 10.199,2.34 15,2.969 4.89,0.699 9.109,1.09 12.66,1.09 7.191,0 13.98,-0.777 20.469,-2.34 6.562,-1.488 12.261,-4.148 17.191,-7.969 4.879,-3.75 8.789,-8.871 11.711,-15.32 2.899,-6.359 4.379,-14.531 4.379,-24.531 l -0.309,-94.0587 h 17.5 v -8.9101 c -3.242,-1.7891 -7.191,-3.1602 -11.882,-4.211 -4.688,-1.1406 -9.368,-1.7187 -14.059,-1.7187 -1.68,0 -3.52,0.1093 -5.469,0.3086 -1.871,0.2304 -3.672,0.7812 -5.312,1.7226 -1.559,0.9375 -2.891,2.3399 -3.91,4.2188 -1.047,1.9492 -1.559,4.6093 -1.559,7.9687 v 3.9024 c -2.109,-2.6211 -4.609,-5 -7.5,-7.1914 -2.809,-2.1797 -6.09,-4.1407 -9.84,-5.7813 -3.68,-1.6797 -7.82,-2.8906 -12.5,-3.75 -4.691,-0.9297 -9.93,-1.3984 -15.629,-1.3984 -7.109,0 -13.551,1.25 -19.371,3.75 -5.75,2.5703 -10.59,6.0078 -14.539,10.3086 -3.859,4.3711 -6.711,9.4101 -8.59,15.1599 -1.871,5.699 -2.461,11.75 -1.722,18.121 z m 26.57,-0.621 c 0,-5.32 0.699,-9.847 2.18,-13.597 1.453,-3.75 3.519,-6.832 6.25,-9.2231 2.812,-2.3008 6.171,-3.9805 10.16,-5 4.062,-1.0508 8.633,-1.5586 13.75,-1.5586 2.691,0 5.472,0.3516 8.281,1.0899 2.809,0.7109 5.512,1.6093 8.121,2.6601 2.578,1.1289 5,2.3789 7.188,3.75 2.269,1.4497 4.101,2.8517 5.472,4.2187 0,8.633 0,17.191 0,25.621 0.078,8.442 0.199,16.918 0.309,25.469 -3.86,0 -8.078,-0.231 -12.649,-0.617 -4.613,-0.434 -9.179,-1.172 -13.75,-2.192 -4.492,-0.941 -8.871,-2.269 -13.132,-3.91 -4.289,-1.68 -8.079,-3.75 -11.399,-6.25 -3.25,-2.5 -5.859,-5.461 -7.82,-8.898 -1.988,-3.364 -2.961,-7.192 -2.961,-11.563 z" /><path
         id="path56"
         style="fill:#849daa;fill-opacity:1;fill-rule:nonzero;stroke:none"
         d="m 953.441,89.5703 22.18,2.9688 V 203.789 L 956.25,214.41 v 8.602 l 36.09,10.777 6.41,-2.809 v -21.101 c 1.64,2.582 4.26,5.32 7.81,8.133 3.52,2.808 7.5,5.347 11.88,7.648 4.37,2.391 8.9,4.301 13.59,5.789 4.77,1.563 9.26,2.34 13.44,2.34 3.01,0 5.7,-0.117 8.12,-0.309 2.39,-0.121 4.11,-0.32 5.16,-0.628 V 204.73 c -1.48,0.5 -2.97,1.09 -4.53,1.719 -1.56,0.621 -3.28,1.129 -5.16,1.563 -1.87,0.386 -4.02,0.699 -6.4,0.937 -2.31,0.313 -5,0.461 -8.13,0.461 -7.42,0 -13.59,-0.93 -18.59,-2.808 -5,-1.872 -9.61,-4.141 -13.75,-6.723 V 92.8516 l 38.9,-3.2813 V 78.0117 h -87.649 z" /><path
         id="path58"
         style="fill:#849daa;fill-opacity:1;fill-rule:nonzero;stroke:none"
         d="m 1078.2,154.102 c 0,11.636 1.8,22.378 5.47,32.187 3.63,9.883 8.75,18.441 15.31,25.621 6.64,7.192 14.61,12.82 23.91,16.879 9.38,4.141 19.61,6.41 30.78,6.723 8.01,0.187 15.24,-0.942 21.72,-3.442 6.56,-2.5 12.07,-6.25 16.56,-11.25 4.57,-4.922 8.17,-10.898 10.78,-17.968 2.58,-7.114 4.11,-15.153 4.54,-24.223 0.07,-5.738 -0.08,-10.738 -0.47,-15 -0.43,-4.18 -0.86,-7.891 -1.25,-11.09 H 1104.3 c 0,-0.551 0,-1.059 0,-1.559 0,-0.55 0.04,-1.058 0.15,-1.57 0.32,-11.051 2.11,-20.148 5.47,-27.34 3.44,-7.191 7.66,-12.929 12.66,-17.191 5.08,-4.289 10.66,-7.2579 16.72,-8.8985 6.13,-1.6797 12.11,-2.5 17.97,-2.5 3.51,0 7.26,0.1914 11.25,0.6211 3.94,0.3867 7.73,0.9765 11.4,1.7187 3.63,0.8203 7.03,1.7188 10.16,2.6602 3.2,1.0078 5.78,2.0705 7.65,3.1215 l 5.16,-11.5629 c -2.73,-2.418 -6.21,-4.5274 -10.47,-6.4102 -4.18,-1.8672 -8.75,-3.5078 -13.75,-4.8398 -5,-1.3282 -10.27,-2.3399 -15.78,-2.9688 -5.43,-0.6992 -10.74,-1.0898 -15.94,-1.0898 -11.05,0 -20.86,1.8711 -29.37,5.6211 -8.56,3.8281 -15.74,9.2187 -21.56,16.0976 -5.86,6.8708 -10.28,15.1528 -13.29,24.8398 -3.04,9.762 -4.53,20.699 -4.53,32.813 z m 101.1,14.527 c 0.31,4.691 0.35,9.383 0.15,14.07 -0.11,4.68 -0.7,9.102 -1.72,13.281 -0.93,4.25 -2.46,8.161 -4.53,11.719 -2.11,3.512 -4.84,6.403 -8.28,8.59 -2.42,1.563 -5.12,2.691 -8.12,3.441 -2.93,0.7 -6.33,1.09 -10.16,1.09 -5.12,0 -10.08,-0.941 -14.84,-2.808 -4.81,-1.883 -9.14,-4.961 -12.97,-9.223 -3.75,-4.18 -6.95,-9.609 -9.53,-16.25 -2.5,-6.559 -4.14,-14.527 -4.85,-23.91 z" /><path
         id="path60"
         style="fill:#849daa;fill-opacity:1;fill-rule:nonzero;stroke:none"
         d="m 1318.12,128.32 c 0,6.45 1.02,12.34 3.13,17.66 2.19,5.391 5.16,10.348 8.91,14.84 3.82,4.571 8.43,8.75 13.75,12.5 5.39,3.828 11.29,7.418 17.65,10.782 -2.81,4.058 -5.7,8.199 -8.59,12.5 -2.81,4.257 -5.39,8.628 -7.66,13.128 -2.3,4.571 -4.18,9.29 -5.62,14.219 -1.49,5 -2.19,10.153 -2.19,15.461 0,8.32 1.33,15.711 4.06,22.192 2.7,6.558 6.41,12.07 11.1,16.558 4.76,4.461 10.35,7.86 16.72,10.16 6.32,2.379 13.16,3.59 20.46,3.59 8.21,0 15.24,-1.32 21.1,-3.898 5.82,-2.5 10.62,-5.903 14.37,-10.16 3.75,-4.18 6.49,-9.024 8.28,-14.532 1.88,-5.429 2.82,-11.09 2.82,-17.031 0,-6.801 -1.37,-13.238 -4.07,-19.379 -2.73,-6.172 -6.21,-11.832 -10.46,-17.031 -4.3,-5.109 -9.07,-9.801 -14.38,-14.059 -5.31,-4.3 -10.55,-8.05 -15.62,-11.25 2.07,-2.808 4.6,-6.05 7.65,-9.691 3.01,-3.668 6.25,-7.5 9.69,-11.559 3.44,-3.98 6.95,-8.09 10.62,-12.34 3.64,-4.179 7.19,-8.25 10.63,-12.191 3.51,-3.867 6.87,-7.5 10,-10.937 3.12,-3.364 5.94,-6.172 8.44,-8.442 0.93,2.27 1.6,4.61 2.03,7.039 0.51,2.379 0.86,4.723 1.09,7.031 0.2,2.379 0.31,4.61 0.31,6.719 0,2.18 0,4.211 0,6.09 0,4.691 -0.23,8.91 -0.62,12.66 -0.43,3.821 -0.9,7.102 -1.41,9.84 -0.54,2.813 -1.09,5.039 -1.72,6.723 -0.62,1.758 -1.09,2.886 -1.4,3.437 h 25.31 c 0.94,-3.437 1.8,-7.347 2.66,-11.719 0.82,-4.378 1.25,-9.378 1.25,-15 0,-3.441 -0.24,-7.109 -0.63,-10.941 -0.43,-3.867 -1.09,-7.809 -2.03,-11.879 -0.94,-3.98 -2.27,-7.89 -3.91,-11.711 -1.56,-3.871 -3.59,-7.5 -6.09,-10.937 5.51,-4.184 10.82,-7.5823 15.94,-10.1604 5.08,-2.5 10.08,-4.1407 15,-4.8399 V 80.1992 c -5.86,-1.8789 -12.35,-2.1484 -19.53,-0.789 -4.38,0.7109 -8.87,1.9609 -13.44,3.75 -4.61,1.8789 -9.38,4.3789 -14.38,7.5 -3.36,-2.9297 -7.18,-5.4297 -11.56,-7.5 -4.3,-2.1094 -8.75,-3.8594 -13.44,-5.3086 -4.61,-1.4414 -9.29,-2.5 -14.06,-3.1211 -4.8,-0.711 -9.37,-1.1016 -13.75,-1.1016 -4.92,0 -10.15,0.3203 -15.78,0.9414 -5.55,0.5508 -11.17,1.5586 -16.87,3.1289 -5.63,1.5625 -11.1,3.6289 -16.41,6.25 -5.24,2.5703 -9.85,5.9297 -13.91,10 -4.06,4.0625 -7.34,8.9028 -9.84,14.5308 -2.42,5.622 -3.6,12.219 -3.6,19.84 z m 65.16,66.879 c 4.45,2.379 8.6,5.071 12.34,8.121 3.76,3.129 6.96,6.602 9.69,10.469 2.7,3.941 4.77,8.281 6.25,12.973 1.56,4.687 2.35,9.84 2.35,15.468 0,3.508 -0.39,7.379 -1.1,11.559 -0.74,4.262 -2.11,8.16 -4.06,11.723 -1.99,3.629 -4.77,6.636 -8.28,9.058 -3.56,2.5 -8.05,3.75 -13.44,3.75 -2.81,0 -5.78,-0.55 -8.91,-1.558 -3.04,-0.942 -5.85,-2.621 -8.43,-5 -2.62,-2.313 -4.81,-5.391 -6.57,-9.223 -1.67,-3.75 -2.5,-8.559 -2.5,-14.379 0,-6.359 0.71,-12.18 2.19,-17.5 1.57,-5.308 3.44,-10.148 5.63,-14.531 2.26,-4.367 4.72,-8.359 7.34,-11.867 2.7,-3.442 5.2,-6.492 7.5,-9.063 z m -40.31,-63.289 c 0,-6.789 1.41,-12.769 4.22,-17.961 2.81,-5.238 6.6,-9.609 11.4,-13.129 4.77,-3.5505 10.36,-6.2497 16.72,-8.1208 6.45,-1.8789 13.28,-2.8203 20.47,-2.8203 3.83,0 7.66,0.1602 11.41,0.4727 3.75,0.3086 7.22,0.8203 10.47,1.5586 3.32,0.8203 6.4,1.9179 9.22,3.289 2.89,1.3203 5.5,3.1211 7.81,5.3128 -3.24,2.687 -6.8,5.937 -10.63,9.687 -3.75,3.75 -7.65,7.692 -11.72,11.871 -4.06,4.258 -8.2,8.629 -12.34,13.129 -4.06,4.571 -7.97,9.102 -11.72,13.59 -3.75,4.449 -7.26,8.75 -10.47,12.813 -3.24,4.058 -6.05,7.738 -8.43,11.097 -4.38,-2.929 -8.25,-5.75 -11.57,-8.437 -3.36,-2.742 -6.09,-5.633 -8.28,-8.75 -2.19,-3.133 -3.87,-6.641 -5,-10.473 -1.05,-3.75 -1.56,-8.129 -1.56,-13.129 z" /><path
         id="path62"
         style="fill:#849daa;fill-opacity:1;fill-rule:nonzero;stroke:none"
         d="m 1596.95,274.57 -17.81,2.192 v 13.59 h 73.28 v -13.59 l -25.94,-2.352 42.82,-140.621 c 1.32,-4.488 2.69,-8.91 4.06,-13.277 1.33,-4.383 2.73,-8.832 4.22,-13.282 l 8.59,25 28.91,117.809 -7.66,24.531 -22.19,2.192 v 13.59 h 74.54 v -13.59 l -23.75,-2.192 37.18,-143.441 6.72,-26.25 7.03,31.41 35.63,138.281 -23.6,2.192 v 13.59 h 66.1 v -13.59 l -20.16,-2.192 -58.44,-199.3708 h -22.03 l -39.22,138.9028 -38.9,-138.9028 h -22.35 z" /><path
         id="path64"
         style="fill:#849daa;fill-opacity:1;fill-rule:nonzero;stroke:none"
         d="m 1879.38,154.102 c 0,11.636 1.79,22.378 5.46,32.187 3.64,9.883 8.75,18.441 15.32,25.621 6.64,7.192 14.61,12.82 23.9,16.879 9.38,4.141 19.61,6.41 30.78,6.723 8.01,0.187 15.24,-0.942 21.72,-3.442 6.56,-2.5 12.07,-6.25 16.56,-11.25 4.58,-4.922 8.17,-10.898 10.79,-17.968 2.57,-7.114 4.1,-15.153 4.53,-24.223 0.08,-5.738 -0.08,-10.738 -0.47,-15 -0.43,-4.18 -0.86,-7.891 -1.25,-11.09 h -101.25 c 0,-0.551 0,-1.059 0,-1.559 0,-0.55 0.04,-1.058 0.15,-1.57 0.32,-11.051 2.11,-20.148 5.47,-27.34 3.44,-7.191 7.66,-12.929 12.66,-17.191 5.08,-4.289 10.66,-7.2579 16.72,-8.8985 6.13,-1.6797 12.11,-2.5 17.97,-2.5 3.51,0 7.26,0.1914 11.25,0.6211 3.94,0.3867 7.73,0.9765 11.4,1.7187 3.64,0.8203 7.03,1.7188 10.16,2.6602 3.2,1.0078 5.78,2.0705 7.66,3.1215 l 5.15,-11.5629 c -2.73,-2.418 -6.21,-4.5274 -10.47,-6.4102 -4.18,-1.8672 -8.75,-3.5078 -13.75,-4.8398 -5,-1.3282 -10.27,-2.3399 -15.78,-2.9688 -5.43,-0.6992 -10.74,-1.0898 -15.94,-1.0898 -11.05,0 -20.85,1.8711 -29.37,5.6211 -8.55,3.8281 -15.74,9.2187 -21.56,16.0976 -5.86,6.8708 -10.28,15.1528 -13.28,24.8398 -3.05,9.762 -4.53,20.699 -4.53,32.813 z m 101.09,14.527 c 0.31,4.691 0.35,9.383 0.15,14.07 -0.11,4.68 -0.7,9.102 -1.71,13.281 -0.94,4.25 -2.46,8.161 -4.53,11.719 -2.11,3.512 -4.85,6.403 -8.29,8.59 -2.42,1.563 -5.11,2.691 -8.12,3.441 -2.93,0.7 -6.33,1.09 -10.16,1.09 -5.11,0 -10.08,-0.941 -14.84,-2.808 -4.81,-1.883 -9.14,-4.961 -12.97,-9.223 -3.75,-4.18 -6.95,-9.609 -9.53,-16.25 -2.5,-6.559 -4.14,-14.527 -4.85,-23.91 z" /><path
         id="path66"
         style="fill:#849daa;fill-opacity:1;fill-rule:nonzero;stroke:none"
         d="m 2049.84,278.48 -23.43,4.84 v 11.879 l 44.21,5 5.47,-2.347 v -79.84 c 2.39,2.066 5.04,4.136 7.97,6.25 3.01,2.066 6.29,3.937 9.85,5.617 3.63,1.762 7.65,3.172 12.03,4.223 4.37,1.019 9.22,1.558 14.53,1.558 7.69,0 15.19,-1.359 22.5,-4.058 7.26,-2.731 13.75,-7.032 19.37,-12.973 5.63,-5.93 10.16,-13.668 13.6,-23.117 3.51,-9.492 5.31,-21.102 5.31,-34.852 0,-11.68 -1.87,-22.769 -5.63,-33.281 -3.74,-10.43 -9.06,-19.609 -15.93,-27.5001 -6.8,-7.8086 -14.92,-14.0586 -24.38,-18.75 -9.49,-4.6797 -20,-7.0273 -31.56,-7.0273 -6.48,0 -12.73,0.3867 -18.75,1.0976 -6.05,0.7422 -11.52,1.6797 -16.41,2.8125 -4.92,1.1289 -9.06,2.2578 -12.5,3.4375 -3.36,1.25 -5.43,2.3789 -6.25,3.4297 z m 26.25,-178.9097 c 1.45,-3.75 4.93,-6.5586 10.47,-8.4414 5.63,-1.7891 12.39,-2.6484 20.32,-2.6484 5.93,0 11.75,1.289 17.5,3.8984 5.7,2.6992 10.82,6.7617 15.31,12.1911 4.45,5.508 8.12,12.5 10.93,20.942 2.82,8.508 4.26,18.629 4.38,30.308 0.2,10.942 -1.02,20.231 -3.59,27.969 -2.62,7.813 -6.06,14.102 -10.32,18.91 -4.29,4.762 -9.18,8.281 -14.68,10.461 -5.55,2.27 -11.18,3.442 -16.88,3.442 -3.98,0 -7.65,-0.43 -11.09,-1.25 -3.44,-0.743 -6.56,-1.801 -9.38,-3.122 -2.73,-1.25 -5.23,-2.66 -7.5,-4.218 -2.18,-1.492 -4.02,-2.891 -5.47,-4.223 z" /><path
         id="path68"
         style="fill:#849daa;fill-opacity:1;fill-rule:nonzero;stroke:none"
         d="m 2281.02,89.5703 23.12,4.2188 V 274.41 l -22.66,2.5 v 13.442 h 35.94 c 6.13,0 11.45,0.039 15.94,0.16 4.45,0.187 8.59,0.468 12.34,0.777 3.83,0.313 7.58,0.512 11.25,0.621 3.64,0.199 7.58,0.32 11.88,0.32 17.69,0.071 33.01,-2.191 45.94,-6.878 13,-4.692 23.75,-11.524 32.18,-20.473 8.44,-8.859 14.69,-19.649 18.75,-32.34 4.14,-12.617 6.25,-26.879 6.25,-42.809 0,-17.929 -2.81,-33.992 -8.43,-48.128 -5.55,-14.18 -13.13,-26.172 -22.82,-35.942 -9.68,-9.6795 -21.17,-17.0311 -34.37,-22.0311 -13.13,-5 -27.27,-7.3398 -42.35,-7.0273 -6.79,0.2382 -13.86,0.5468 -21.25,0.9375 -7.42,0.4297 -15.7,0.6211 -24.84,0.6211 -6.17,0 -12.3,-0.0704 -18.44,-0.1485 -6.17,0 -12.3,0 -18.43,0 z m 49.68,6.5586 c 5.82,-1.6797 11.8,-2.8906 17.97,-3.5898 6.25,-0.6289 12.97,-0.8985 20.16,-0.7774 10,0.3086 19.53,2.3399 28.59,6.0899 9.06,3.7504 17.03,9.2964 23.91,16.7184 6.95,7.379 12.5,16.758 16.56,28.129 4.06,11.321 6.09,24.762 6.09,40.313 0,16.129 -1.99,30.148 -5.93,42.027 -3.87,11.871 -9.38,21.723 -16.57,29.531 -7.18,7.809 -15.93,13.59 -26.25,17.34 -10.31,3.75 -21.83,5.391 -34.53,5 -3.75,-0.109 -7.03,-0.269 -9.84,-0.461 -2.81,-0.121 -5.39,-0.277 -7.66,-0.469 -2.3,-0.242 -4.45,-0.468 -6.4,-0.781 -2,-0.32 -4.03,-0.629 -6.1,-0.937 z" /><path
         id="path70"
         style="fill:#849daa;fill-opacity:1;fill-rule:nonzero;stroke:none"
         d="m 2497.89,154.102 c 0,11.636 1.8,22.378 5.47,32.187 3.63,9.883 8.75,18.441 15.31,25.621 6.64,7.192 14.61,12.82 23.91,16.879 9.37,4.141 19.61,6.41 30.78,6.723 8.01,0.187 15.23,-0.942 21.72,-3.442 6.56,-2.5 12.07,-6.25 16.56,-11.25 4.57,-4.922 8.16,-10.898 10.78,-17.968 2.58,-7.114 4.1,-15.153 4.53,-24.223 0.08,-5.738 -0.07,-10.738 -0.47,-15 -0.43,-4.18 -0.86,-7.891 -1.25,-11.09 h -101.25 c 0,-0.551 0,-1.059 0,-1.559 0,-0.55 0.04,-1.058 0.16,-1.57 0.31,-11.051 2.11,-20.148 5.47,-27.34 3.44,-7.191 7.66,-12.929 12.66,-17.191 5.07,-4.289 10.66,-7.2579 16.71,-8.8985 6.14,-1.6797 12.11,-2.5 17.97,-2.5 3.52,0 7.27,0.1914 11.25,0.6211 3.95,0.3867 7.74,0.9765 11.41,1.7187 3.63,0.8203 7.03,1.7188 10.16,2.6602 3.2,1.0078 5.78,2.0705 7.65,3.1215 l 5.16,-11.5629 c -2.74,-2.418 -6.21,-4.5274 -10.47,-6.4102 -4.18,-1.8672 -8.75,-3.5078 -13.75,-4.8398 -5,-1.3282 -10.27,-2.3399 -15.78,-2.9688 -5.43,-0.6992 -10.74,-1.0898 -15.94,-1.0898 -11.05,0 -20.86,1.8711 -29.37,5.6211 -8.56,3.8281 -15.75,9.2187 -21.57,16.0976 -5.86,6.8708 -10.27,15.1528 -13.28,24.8398 -3.04,9.762 -4.53,20.699 -4.53,32.813 z m 101.09,14.527 c 0.32,4.691 0.36,9.383 0.16,14.07 -0.12,4.68 -0.7,9.102 -1.72,13.281 -0.94,4.25 -2.46,8.161 -4.53,11.719 -2.11,3.512 -4.84,6.403 -8.28,8.59 -2.42,1.563 -5.12,2.691 -8.13,3.441 -2.93,0.7 -6.32,1.09 -10.15,1.09 -5.12,0 -10.08,-0.941 -14.85,-2.808 -4.8,-1.883 -9.14,-4.961 -12.96,-9.223 -3.75,-4.18 -6.96,-9.609 -9.54,-16.25 -2.5,-6.559 -4.14,-14.527 -4.84,-23.91 z" /><path
         id="path72"
         style="fill:#849daa;fill-opacity:1;fill-rule:nonzero;stroke:none"
         d="m 2654.14,214.102 -13.28,2.5 v 14.378 h 60.16 v -14.378 l -16.88,-2.813 30,-72.969 12.81,-39.218 12.66,37.5 26.09,74.687 -17.5,2.66 v 14.531 h 54.53 v -14.378 l -14.53,-2.973 -55.62,-138.8985 h -18.44 z" /><path
         id="path74"
         style="fill:#849daa;fill-opacity:1;fill-rule:nonzero;stroke:none"
         d="m 2816.72,154.102 c 0,11.636 1.8,22.378 5.47,32.187 3.63,9.883 8.75,18.441 15.31,25.621 6.64,7.192 14.61,12.82 23.91,16.879 9.37,4.141 19.61,6.41 30.78,6.723 8.01,0.187 15.23,-0.942 21.72,-3.442 6.56,-2.5 12.07,-6.25 16.56,-11.25 4.57,-4.922 8.16,-10.898 10.78,-17.968 2.58,-7.114 4.1,-15.153 4.53,-24.223 0.08,-5.738 -0.08,-10.738 -0.47,-15 -0.43,-4.18 -0.86,-7.891 -1.25,-11.09 h -101.25 c 0,-0.551 0,-1.059 0,-1.559 0,-0.55 0.04,-1.058 0.16,-1.57 0.31,-11.051 2.11,-20.148 5.47,-27.34 3.44,-7.191 7.65,-12.929 12.65,-17.191 5.08,-4.289 10.67,-7.2579 16.72,-8.8985 6.14,-1.6797 12.11,-2.5 17.97,-2.5 3.52,0 7.27,0.1914 11.25,0.6211 3.95,0.3867 7.74,0.9765 11.41,1.7187 3.63,0.8203 7.03,1.7188 10.15,2.6602 3.21,1.0078 5.79,2.0705 7.66,3.1215 l 5.16,-11.5629 c -2.74,-2.418 -6.21,-4.5274 -10.47,-6.4102 -4.18,-1.8672 -8.75,-3.5078 -13.75,-4.8398 -5,-1.3282 -10.28,-2.3399 -15.78,-2.9688 -5.43,-0.6992 -10.75,-1.0898 -15.94,-1.0898 -11.06,0 -20.86,1.8711 -29.38,5.6211 -8.55,3.8281 -15.74,9.2187 -21.56,16.0976 -5.86,6.8708 -10.27,15.1528 -13.28,24.8398 -3.05,9.762 -4.53,20.699 -4.53,32.813 z m 101.09,14.527 c 0.31,4.691 0.35,9.383 0.16,14.07 -0.12,4.68 -0.7,9.102 -1.72,13.281 -0.94,4.25 -2.46,8.161 -4.53,11.719 -2.11,3.512 -4.84,6.403 -8.28,8.59 -2.42,1.563 -5.12,2.691 -8.13,3.441 -2.93,0.7 -6.33,1.09 -10.15,1.09 -5.12,0 -10.08,-0.941 -14.85,-2.808 -4.8,-1.883 -9.14,-4.961 -12.97,-9.223 -3.75,-4.18 -6.95,-9.609 -9.53,-16.25 -2.5,-6.559 -4.14,-14.527 -4.84,-23.91 z" /><path
         id="path76"
         style="fill:#849daa;fill-opacity:1;fill-rule:nonzero;stroke:none"
         d="m 2974.22,89.5703 23.12,2.9688 V 277.699 l -21.87,4.84 v 11.871 l 42.81,5.789 5.47,-3.129 V 92.5391 l 24.37,-2.9688 V 78.0117 h -73.9 z" /><path
         id="path78"
         style="fill:#849daa;fill-opacity:1;fill-rule:nonzero;stroke:none"
         d="m 3069.14,157.539 c 0.2,12.262 2.34,23.199 6.41,32.813 4.06,9.57 9.41,17.699 16.09,24.378 6.64,6.641 14.3,11.75 22.97,15.309 8.75,3.512 17.85,5.352 27.34,5.473 11.57,0.078 21.6,-1.961 30.16,-6.102 8.63,-4.058 15.7,-9.68 21.25,-16.871 5.62,-7.109 9.76,-15.469 12.5,-25.16 2.81,-9.68 4.14,-20.078 4.06,-31.09 -0.12,-12.109 -2.11,-23.129 -5.94,-33.129 -3.75,-10 -8.86,-18.59 -15.31,-25.7811 -6.37,-7.1797 -13.87,-12.7695 -22.5,-16.7187 -8.55,-3.9414 -17.77,-5.9297 -27.65,-5.9297 -12.62,0 -23.36,2.3008 -32.19,6.8711 -8.75,4.5703 -15.94,10.6679 -21.56,18.2773 -5.55,7.6991 -9.54,16.4921 -12.04,26.4101 -2.5,10 -3.71,20.391 -3.59,31.25 z m 70.63,-67.4999 c 7.69,-0.2383 14.21,1.0898 19.53,3.9101 5.39,2.8906 9.76,7.0708 13.12,12.4998 3.32,5.5 5.7,12.34 7.19,20.461 1.44,8.211 2.19,17.66 2.19,28.289 0,9.141 -0.78,17.692 -2.35,25.621 -1.56,8.008 -4.06,15 -7.5,20.942 -3.43,5.937 -7.77,10.539 -12.97,13.898 -5.23,3.442 -11.48,5.238 -18.75,5.469 -7.73,0.082 -14.29,-1.25 -19.68,-4.059 -5.43,-2.73 -9.93,-6.8 -13.44,-12.191 -3.44,-5.43 -5.94,-11.988 -7.5,-19.68 -1.56,-7.738 -2.34,-16.527 -2.34,-26.41 0,-8.867 0.82,-17.418 2.5,-25.629 1.75,-8.121 4.37,-15.39 7.81,-21.711 3.51,-6.371 7.97,-11.4881 13.28,-15.3201 5.31,-3.8594 11.6,-5.8984 18.91,-6.0898 z" /><path
         id="path80"
         style="fill:#849daa;fill-opacity:1;fill-rule:nonzero;stroke:none"
         d="M 3259.61,22.6992 V 203.789 l -19.38,10.621 v 8.602 l 36.25,10.777 6.25,-2.969 v -15.781 c 1.88,2.191 4.38,4.449 7.5,6.871 3.21,2.391 6.88,4.57 10.94,6.57 4.06,2.071 8.6,3.75 13.6,5 5.07,1.321 10.46,2.032 16.09,2.032 7.58,0 15,-1.371 22.19,-4.063 7.26,-2.738 13.67,-7.109 19.22,-13.129 5.62,-5.941 10.07,-13.75 13.43,-23.441 3.44,-9.68 5.16,-21.52 5.16,-35.469 0,-11.68 -1.95,-22.648 -5.78,-32.961 -3.75,-10.238 -9.06,-19.179 -15.94,-26.8787 -6.87,-7.6211 -15.12,-13.6719 -24.69,-18.1211 -9.49,-4.3789 -20,-6.5703 -31.56,-6.5703 -5.12,0 -9.96,0.4297 -14.53,1.25 -4.49,0.8594 -8.91,1.8828 -13.28,3.1328 l 0.78,-36.8828 V 22.6992 l 26.87,-2.9687 V 8.16016 h -72.18 V 19.7305 Z m 26.25,78.5898 c 2.07,-3.6679 5.62,-6.5585 10.62,-8.7499 5.08,-2.1875 11.61,-3.2774 19.54,-3.2774 5.93,0 11.75,1.168 17.5,3.5899 5.82,2.3789 10.97,6.25 15.46,11.5584 4.57,5.391 8.29,12.27 11.1,20.629 2.89,8.441 4.45,18.672 4.69,30.781 0.19,11.45 -0.94,21.129 -3.44,29.059 -2.5,7.891 -5.9,14.301 -10.16,19.223 -4.29,4.878 -9.14,8.359 -14.53,10.468 -5.43,2.192 -11.02,3.282 -16.72,3.282 -4.37,0 -8.36,-0.551 -11.87,-1.563 -3.44,-0.937 -6.64,-2.148 -9.53,-3.59 -2.82,-1.488 -5.32,-3.051 -7.5,-4.687 -2.11,-1.684 -3.87,-3.133 -5.32,-4.383 l 0.16,-53.117 z" /><path
         id="path82"
         style="fill:#849daa;fill-opacity:1;fill-rule:nonzero;stroke:none"
         d="m 3423.44,89.5703 18.59,3.1289 V 203.789 l -19.37,10.621 v 8.602 l 36.25,10.777 6.25,-2.809 v -19.531 c 3,2.571 6.64,5.192 10.93,7.813 4.26,2.578 8.79,4.918 13.6,7.027 4.88,2.191 9.88,3.91 15,5.16 5.08,1.321 10,2.102 14.69,2.34 9.88,0.313 17.85,-1.059 23.9,-4.059 6.02,-2.929 10.7,-8.089 14.06,-15.468 3.32,2.5 7.23,4.879 11.72,7.187 4.46,2.262 9.14,4.289 14.06,6.09 4.89,1.762 9.85,3.16 14.85,4.223 5,1.129 9.69,1.789 14.06,2.027 8.52,0.191 15.7,-0.898 21.56,-3.277 5.82,-2.313 10.51,-6.102 14.07,-11.41 3.51,-5.313 6.09,-12.192 7.65,-20.622 1.57,-8.359 2.35,-18.402 2.35,-30.16 V 92.5391 l 23.12,-2.9688 V 78.0117 h -67.97 v 11.5586 l 18.6,2.9688 v 71.0899 c 0,8.75 -0.43,16.293 -1.25,22.66 -0.86,6.441 -2.46,11.762 -4.85,15.941 -2.42,4.141 -5.78,7.18 -10.15,9.059 -4.3,1.949 -9.85,2.813 -16.72,2.5 -6.25,-0.309 -12.46,-1.519 -18.6,-3.59 -6.05,-2 -12.03,-4.648 -17.96,-7.969 1.01,-4.378 1.79,-9.378 2.34,-15 0.51,-5.628 0.78,-11.492 0.78,-17.5 V 92.3789 l 20.94,-2.8086 V 78.0117 h -67.66 v 11.5586 l 20.47,3.1289 V 165.82 c 0,8.629 -0.43,16.02 -1.25,22.192 -0.86,6.25 -2.5,11.289 -5,15.148 -2.5,3.949 -5.94,6.762 -10.31,8.442 -4.3,1.757 -9.85,2.5 -16.72,2.187 -4.92,-0.309 -10.55,-1.641 -16.88,-3.91 -6.36,-2.18 -13.04,-5.617 -20,-10.309 v -25 c 0,-13.75 -0.07,-27.461 -0.15,-41.09 0,-13.558 0.04,-27.191 0.15,-40.9409 l 20.32,-2.9688 V 78.0117 h -65.47 z" /><path
         id="path84"
         style="fill:#849daa;fill-opacity:1;fill-rule:nonzero;stroke:none"
         d="m 3701.56,154.102 c 0,11.636 1.8,22.378 5.47,32.187 3.63,9.883 8.75,18.441 15.31,25.621 6.64,7.192 14.61,12.82 23.91,16.879 9.37,4.141 19.61,6.41 30.78,6.723 8.01,0.187 15.24,-0.942 21.72,-3.442 6.56,-2.5 12.07,-6.25 16.56,-11.25 4.57,-4.922 8.17,-10.898 10.78,-17.968 2.58,-7.114 4.11,-15.153 4.53,-24.223 0.08,-5.738 -0.07,-10.738 -0.46,-15 -0.43,-4.18 -0.86,-7.891 -1.25,-11.09 h -101.25 c 0,-0.551 0,-1.059 0,-1.559 0,-0.55 0.04,-1.058 0.15,-1.57 0.31,-11.051 2.11,-20.148 5.47,-27.34 3.44,-7.191 7.66,-12.929 12.66,-17.191 5.08,-4.289 10.66,-7.2579 16.72,-8.8985 6.13,-1.6797 12.11,-2.5 17.96,-2.5 3.52,0 7.27,0.1914 11.26,0.6211 3.94,0.3867 7.73,0.9765 11.4,1.7187 3.63,0.8203 7.03,1.7188 10.16,2.6602 3.2,1.0078 5.78,2.0705 7.65,3.1215 l 5.16,-11.5629 c -2.73,-2.418 -6.21,-4.5274 -10.47,-6.4102 -4.18,-1.8672 -8.75,-3.5078 -13.75,-4.8398 -5,-1.3282 -10.27,-2.3399 -15.78,-2.9688 -5.43,-0.6992 -10.74,-1.0898 -15.94,-1.0898 -11.05,0 -20.86,1.8711 -29.37,5.6211 -8.56,3.8281 -15.74,9.2187 -21.56,16.0976 -5.86,6.8708 -10.28,15.1528 -13.29,24.8398 -3.04,9.762 -4.53,20.699 -4.53,32.813 z m 101.1,14.527 c 0.31,4.691 0.35,9.383 0.15,14.07 -0.11,4.68 -0.7,9.102 -1.72,13.281 -0.93,4.25 -2.46,8.161 -4.53,11.719 -2.11,3.512 -4.84,6.403 -8.28,8.59 -2.42,1.563 -5.12,2.691 -8.12,3.441 -2.93,0.7 -6.33,1.09 -10.16,1.09 -5.12,0 -10.08,-0.941 -14.84,-2.808 -4.81,-1.883 -9.14,-4.961 -12.97,-9.223 -3.75,-4.18 -6.96,-9.609 -9.53,-16.25 -2.5,-6.559 -4.14,-14.527 -4.85,-23.91 z" /><path
         id="path86"
         style="fill:#849daa;fill-opacity:1;fill-rule:nonzero;stroke:none"
         d="m 3863.12,89.5703 18.6,2.8086 V 203.789 l -19.38,10.621 v 8.602 l 36.25,10.777 6.25,-2.809 v -19.531 c 3.01,2.571 6.72,5.192 11.1,7.813 4.37,2.578 8.98,4.918 13.9,7.027 5,2.191 10.08,3.91 15.32,5.16 5.19,1.321 10.07,2.102 14.68,2.34 8.52,0.191 15.67,-0.859 21.41,-3.129 5.7,-2.301 10.35,-6.09 13.91,-11.398 3.51,-5.242 6.09,-11.961 7.65,-20.16 1.57,-8.122 2.35,-17.973 2.35,-29.532 V 92.3789 l 22.03,-2.8086 V 78.0117 h -68.91 v 11.5586 l 20.63,2.9688 v 72.3399 c 0,8.211 -0.43,15.473 -1.25,21.723 -0.86,6.328 -2.46,11.558 -4.85,15.628 -2.42,4.141 -5.74,7.18 -10,9.059 -4.29,1.949 -9.92,2.813 -16.87,2.5 -5.63,-0.309 -11.64,-1.641 -17.97,-3.91 -6.25,-2.18 -12.81,-5.617 -19.69,-10.309 V 92.5391 l 20.31,-2.9688 V 78.0117 h -65.47 z" /><path
         id="path88"
         style="fill:#849daa;fill-opacity:1;fill-rule:nonzero;stroke:none"
         d="m 4071.17,113.789 c 0,16.762 0,33.441 0,50 0.08,16.563 0.16,33.199 0.16,50 h -20.94 v 10.313 c 4.06,0.937 7.38,1.718 10,2.347 2.7,0.621 4.92,1.281 6.72,2.031 1.76,0.7 3.2,1.641 4.37,2.809 1.25,1.25 2.39,3.012 3.44,5.313 0.63,1.558 1.41,3.828 2.35,6.878 0.93,3 1.79,6.09 2.65,9.219 0.94,3.121 1.72,6.012 2.35,8.75 0.62,2.813 1.01,4.84 1.25,6.09 h 13.43 V 230.98 h 45.94 v -17.191 h -45.94 v -68.91 c 0,-10.617 0.16,-19.219 0.47,-25.777 0.31,-6.563 0.98,-11.723 2.03,-15.473 1.14,-3.7501 2.74,-6.3282 4.85,-7.6485 2.07,-1.3711 5,-2.0313 8.75,-2.0313 2.26,0 4.76,0.1914 7.5,0.6211 2.81,0.5078 5.5,1.0899 8.12,1.7188 2.58,0.6211 5,1.289 7.19,2.0312 2.19,0.8203 3.79,1.6016 4.84,2.3397 l 4.38,-12.0311 c -2.19,-2.3008 -5,-4.3281 -8.44,-6.0898 -3.44,-1.6797 -7.19,-3.1289 -11.25,-4.3789 -4.06,-1.1289 -8.12,-1.9493 -12.19,-2.5 -4.06,-0.6211 -7.65,-0.9297 -10.78,-0.9297 -9.92,0 -17.62,3.039 -23.12,9.0586 -5.43,6.1328 -8.13,16.1328 -8.13,29.9999 z" /></g></g></svg>